# xmcd
#
# Track frame offsets: 
#        150
#        9096
#        26668
#        41474
#        63170
#        73913
#        83209
#        92130
#        109236
#        133138
#        144011
#        161254
#
# Disc length: 2339 seconds
#
# Revision: 0
# Processed by: cddbd v1.5.2PL0 Copyright (c) Steve Scherf et al.
# Submitted via: ExactAudioCopyFreeDBPlugin 1.0
#
DISCID=9309210c
DTITLE=Daniel Romano - Modern Pressure
DYEAR=2017
DGENRE=Country
TTITLE0=Ugly Human Heart Pt. 1
TTITLE1=Modern Pressure
TTITLE2=Roya
TTITLE3=The Pride Of Queens
TTITLE4=When I Learned Your Name
TTITLE5=Sucking The Old World Dry
TTITLE6=Ugly Human Heart Pt. 2
TTITLE7=Impossible Green
TTITLE8=Jennifer Castle
TTITLE9=Dancing With The Lady In The Moon
TTITLE10=I Tried To Hold The World (In My Mouth)
TTITLE11=What's To Become Of The Meaning Of Love
EXTD=
EXTT0=
EXTT1=
EXTT2=
EXTT3=
EXTT4=
EXTT5=
EXTT6=
EXTT7=
EXTT8=
EXTT9=
EXTT10=
EXTT11=
PLAYORDER=
